<?xml version="1.0" encoding="utf-8"?>
<!DOCTYPE svg PUBLIC "-//W3C//DTD SVG 1.1//EN" "http://www.w3.org/Graphics/SVG/1.1/DTD/svg11.dtd">
<!-- exported from Silhouette Studio® Business Edition V4.4.259ssbe -->
<svg version="1.1" xmlns="http://www.w3.org/2000/svg" xmlns:xlink="http://www.w3.org/1999/xlink" width="5.644444mm" height="5.644444mm" viewBox="0 0 5.644444 5.644444">
<defs>
<path id="path_ab8534fd0e80f214958633f60fa13227" d="M 2.376497 2.761076 C 2.621472 2.760957 2.847784 2.630197 2.970236 2.418025 C 3.092689 2.205852 3.092689 1.944479 2.970236 1.732306 C 2.847784 1.520133 2.621472 1.389373 2.376497 1.389253 C 2.131524 1.389373 1.905211 1.520133 1.782759 1.732306 C 1.660306 1.944479 1.660306 2.205852 1.782758 2.418025 C 1.905211 2.630197 2.131524 2.760957 2.376497 2.761076 Z M 1.233308 4.132903 C 1.233308 4.132903 1.004672 4.132903 1.004672 3.904266 C 1.004672 3.675628 1.233309 2.989715 2.376497 2.989715 C 3.519688 2.989715 3.748323 3.675628 3.748323 3.904266 C 3.748322 4.132903 3.519686 4.132903 3.519686 4.132903 L 1.233308 4.132903 Z M 3.519686 1.732209 C 3.519686 1.70189 3.53173 1.672812 3.553169 1.651374 C 3.574608 1.629934 3.603686 1.61789 3.634005 1.61789 L 4.548556 1.61789 C 4.589372 1.61793 4.62707 1.639727 4.647467 1.675081 C 4.667863 1.710436 4.667863 1.753982 4.647467 1.789336 C 4.62707 1.82469 4.589372 1.846487 4.548556 1.846527 L 3.634005 1.846527 C 3.603686 1.846527 3.574609 1.834482 3.553169 1.813045 C 3.53173 1.791605 3.519686 1.762529 3.519686 1.732209 Z M 3.634005 2.303802 C 3.603686 2.303802 3.574608 2.315847 3.553169 2.337286 C 3.53173 2.358724 3.519686 2.387802 3.519686 2.418122 C 3.519686 2.448441 3.53173 2.477518 3.553169 2.498957 C 3.574609 2.520395 3.603686 2.53244 3.634005 2.53244 L 4.548556 2.53244 C 4.578876 2.53244 4.607953 2.520395 4.629393 2.498957 C 4.65083 2.477518 4.662875 2.448441 4.662875 2.418122 C 4.662875 2.387802 4.65083 2.358725 4.629393 2.337285 C 4.607953 2.315847 4.578876 2.303802 4.548556 2.303802 L 3.634005 2.303802 Z M 4.09128 2.989715 C 4.060962 2.989715 4.031883 3.00176 4.010445 3.023198 C 3.989007 3.044637 3.976962 3.073715 3.976962 3.104034 C 3.976962 3.134354 3.989007 3.163431 4.010445 3.184871 C 4.031883 3.206308 4.060962 3.218353 4.09128 3.218353 L 4.548556 3.218353 C 4.578876 3.218353 4.607953 3.206309 4.629393 3.184871 C 4.65083 3.163431 4.662875 3.134354 4.662875 3.104034 C 4.662875 3.073715 4.65083 3.044637 4.629393 3.023198 C 4.607953 3.00176 4.578876 2.989715 4.548556 2.989715 L 4.09128 2.989715 Z M 4.09128 3.675628 C 4.060962 3.675628 4.031883 3.687673 4.010445 3.709111 C 3.989007 3.73055 3.976962 3.759628 3.976962 3.789946 C 3.976962 3.820265 3.989007 3.849344 4.010445 3.870783 C 4.031883 3.892221 4.060962 3.904266 4.09128 3.904266 L 4.548556 3.904266 C 4.578876 3.904266 4.607953 3.892221 4.629393 3.870783 C 4.65083 3.849344 4.662875 3.820265 4.662875 3.789946 C 4.662875 3.759628 4.65083 3.73055 4.629393 3.709111 C 4.607953 3.687673 4.578876 3.675628 4.548556 3.675628 L 4.09128 3.675628 Z" fill-rule="evenodd" fill="#1B7837" fill-opacity="1" stroke="none" stroke-opacity="1" stroke-width="0.3527778" stroke-linecap="butt" stroke-linejoin="miter"/>
</defs>
<g>
<g>
<g>
<use xlink:href="#path_ab8534fd0e80f214958633f60fa13227"/>
</g>
</g>
</g>
</svg>