<?xml version="1.0" encoding="utf-8"?>
<!DOCTYPE svg PUBLIC "-//W3C//DTD SVG 1.1//EN" "http://www.w3.org/Graphics/SVG/1.1/DTD/svg11.dtd">
<!-- exported from Silhouette Studio® Business Edition V4.4.259ssbe -->
<svg version="1.1" xmlns="http://www.w3.org/2000/svg" xmlns:xlink="http://www.w3.org/1999/xlink" width="5.644444mm" height="5.644444mm" viewBox="0 0 5.644444 5.644444">
<defs>
<path id="path_f22acc2f86b4945c74ef0e2111159187" d="M 1.251137 4.169048 C 1.251137 4.169048 1.020296 4.169048 1.020296 3.938206 C 1.020296 3.707364 1.251137 3.014838 2.405346 3.014838 C 3.559555 3.014838 3.790398 3.707364 3.790397 3.938206 C 3.790397 4.169048 3.559554 4.169048 3.559554 4.169048 L 1.251137 4.169048 Z M 2.405346 2.783998 C 2.652681 2.783876 2.881176 2.651855 3.004807 2.437637 C 3.128441 2.223418 3.128441 1.959524 3.004807 1.745307 C 2.881175 1.531089 2.652681 1.399067 2.405346 1.398947 C 2.158011 1.399067 1.929515 1.531087 1.805883 1.745307 C 1.682251 1.959524 1.682251 2.223418 1.805883 2.437637 C 1.929515 2.651855 2.158011 2.783876 2.405346 2.783998 Z" fill-rule="evenodd" fill="#1B7837" fill-opacity="1" stroke="none" stroke-opacity="1" stroke-width="0.3527778" stroke-linecap="butt" stroke-linejoin="miter"/>
<path id="path_f8106d67b267d370bf984d14513291a9" d="M 4.136659 2.091471 C 4.16727 2.091471 4.196629 2.103633 4.218274 2.125278 C 4.239918 2.146924 4.252079 2.17628 4.252079 2.206893 L 4.252079 2.553156 L 4.598342 2.553156 C 4.639542 2.553212 4.677583 2.575224 4.698167 2.610912 C 4.718749 2.6466 4.718749 2.690552 4.698167 2.72624 C 4.677583 2.76193 4.639542 2.78394 4.598342 2.783996 L 4.25208 2.783996 L 4.25208 3.13026 C 4.252079 3.171496 4.230081 3.209599 4.194369 3.230217 C 4.158658 3.250834 4.11466 3.250834 4.078948 3.230217 C 4.043236 3.209599 4.021238 3.171496 4.021238 3.13026 L 4.021238 2.783996 L 3.674974 2.783996 C 3.63374 2.783996 3.595636 2.761998 3.575018 2.726287 C 3.554399 2.690574 3.554399 2.646576 3.575018 2.610865 C 3.595636 2.575154 3.63374 2.553156 3.674974 2.553156 L 4.021238 2.553156 L 4.021238 2.206893 C 4.021238 2.17628 4.033399 2.146924 4.055044 2.125278 C 4.076688 2.103633 4.106046 2.091471 4.136659 2.091471 Z" fill-rule="evenodd" fill="#1B7837" fill-opacity="1" stroke="none" stroke-opacity="1" stroke-width="0.3527778" stroke-linecap="butt" stroke-linejoin="miter"/>
</defs>
<g>
<g>
<g>
<use xlink:href="#path_f22acc2f86b4945c74ef0e2111159187"/>
</g>
</g>
</g>
<g>
<g>
<g>
<use xlink:href="#path_f8106d67b267d370bf984d14513291a9"/>
</g>
</g>
</g>
</svg>